<svg xmlns="http://www.w3.org/2000/svg" version="1.1" xmlns:xlink="http://www.w3.org/1999/xlink" xmlns:svgjs="http://svgjs.com/svgjs" width="1660" height="1080" preserveAspectRatio="none" viewBox="0 0 1660 1080"><g mask="url(&quot;#SvgjsMask3674&quot;)" fill="none"><rect width="1660" height="1080" x="0" y="0" fill="url(#SvgjsLinearGradient3675)"></rect><path d="M886 601L1808 600" stroke-width="10" stroke="url(#SvgjsLinearGradient3676)" stroke-linecap="round" class="Left"></path><path d="M1311 906L657 905" stroke-width="8" stroke="url(#SvgjsLinearGradient3677)" stroke-linecap="round" class="Right"></path><path d="M782 497L1791 496" stroke-width="8" stroke="url(#SvgjsLinearGradient3678)" stroke-linecap="round" class="Left"></path><path d="M1634 998L2262 997" stroke-width="10" stroke="url(#SvgjsLinearGradient3676)" stroke-linecap="round" class="Left"></path><path d="M862 42L-368 41" stroke-width="6" stroke="url(#SvgjsLinearGradient3679)" stroke-linecap="round" class="Right"></path><path d="M1019 916L436 915" stroke-width="8" stroke="url(#SvgjsLinearGradient3676)" stroke-linecap="round" class="Left"></path><path d="M194 623L736 622" stroke-width="8" stroke="url(#SvgjsLinearGradient3678)" stroke-linecap="round" class="Left"></path><path d="M1072 811L-96 810" stroke-width="6" stroke="url(#SvgjsLinearGradient3679)" stroke-linecap="round" class="Right"></path><path d="M1649 86L2231 85" stroke-width="8" stroke="url(#SvgjsLinearGradient3678)" stroke-linecap="round" class="Left"></path><path d="M1614 167L2798 166" stroke-width="6" stroke="url(#SvgjsLinearGradient3676)" stroke-linecap="round" class="Left"></path><path d="M733 537L-391 536" stroke-width="10" stroke="url(#SvgjsLinearGradient3678)" stroke-linecap="round" class="Left"></path><path d="M1342 672L2286 671" stroke-width="8" stroke="url(#SvgjsLinearGradient3679)" stroke-linecap="round" class="Right"></path><path d="M1537 611L2775 610" stroke-width="10" stroke="url(#SvgjsLinearGradient3678)" stroke-linecap="round" class="Left"></path><path d="M24 232L-424 231" stroke-width="6" stroke="url(#SvgjsLinearGradient3678)" stroke-linecap="round" class="Left"></path><path d="M1432 309L436 308" stroke-width="6" stroke="url(#SvgjsLinearGradient3677)" stroke-linecap="round" class="Right"></path><path d="M711 64L1747 63" stroke-width="6" stroke="url(#SvgjsLinearGradient3677)" stroke-linecap="round" class="Right"></path><path d="M509 79L-56 78" stroke-width="6" stroke="url(#SvgjsLinearGradient3678)" stroke-linecap="round" class="Left"></path><path d="M1397 529L640 528" stroke-width="10" stroke="url(#SvgjsLinearGradient3679)" stroke-linecap="round" class="Right"></path><path d="M826 331L1762 330" stroke-width="6" stroke="url(#SvgjsLinearGradient3679)" stroke-linecap="round" class="Right"></path><path d="M136 458L718 457" stroke-width="10" stroke="url(#SvgjsLinearGradient3676)" stroke-linecap="round" class="Left"></path><path d="M912 388L-240 387" stroke-width="8" stroke="url(#SvgjsLinearGradient3678)" stroke-linecap="round" class="Left"></path><path d="M1395 260L2337 259" stroke-width="6" stroke="url(#SvgjsLinearGradient3676)" stroke-linecap="round" class="Left"></path><path d="M1045 815L1791 814" stroke-width="10" stroke="url(#SvgjsLinearGradient3679)" stroke-linecap="round" class="Right"></path><path d="M1352 584L362 583" stroke-width="10" stroke="url(#SvgjsLinearGradient3678)" stroke-linecap="round" class="Left"></path><path d="M1068 215L460 214" stroke-width="10" stroke="url(#SvgjsLinearGradient3679)" stroke-linecap="round" class="Right"></path><path d="M1350 280L429 279" stroke-width="10" stroke="url(#SvgjsLinearGradient3678)" stroke-linecap="round" class="Left"></path><path d="M187 43L702 42" stroke-width="10" stroke="url(#SvgjsLinearGradient3678)" stroke-linecap="round" class="Left"></path></g><defs><mask id="SvgjsMask3674"><rect width="1660" height="1080" fill="#ffffff"></rect></mask><linearGradient x1="8.73%" y1="-13.43%" x2="91.27%" y2="113.43%" gradientUnits="userSpaceOnUse" id="SvgjsLinearGradient3675"><stop stop-color="rgba(14, 42, 71, 0.36)" offset="0"></stop><stop stop-color="rgba(14, 27, 21, 0.57)" offset="0.21"></stop><stop stop-color="rgba(14, 27, 21, 0.86)" offset="0.34"></stop><stop stop-color="rgba(14, 27, 21, 0.86)" offset="0.43"></stop><stop stop-color="rgba(14, 27, 21, 0.9)" offset="0.62"></stop><stop stop-color="rgba(14, 27, 21, 0.77)" offset="1"></stop></linearGradient><linearGradient x1="100%" y1="0%" x2="0%" y2="0%" id="SvgjsLinearGradient3676"><stop stop-color="rgba(57, 106, 82, 0)" offset="0"></stop><stop stop-color="rgba(57, 106, 82, 0.35)" offset="1"></stop></linearGradient><linearGradient x1="0%" y1="0%" x2="100%" y2="0%" id="SvgjsLinearGradient3677"><stop stop-color="rgba(50, 93, 72, 0)" offset="0"></stop><stop stop-color="rgba(50, 93, 72, 0.38)" offset="1"></stop></linearGradient><linearGradient x1="100%" y1="0%" x2="0%" y2="0%" id="SvgjsLinearGradient3678"><stop stop-color="rgba(50, 93, 72, 0)" offset="0"></stop><stop stop-color="rgba(50, 93, 72, 0.38)" offset="1"></stop></linearGradient><linearGradient x1="0%" y1="0%" x2="100%" y2="0%" id="SvgjsLinearGradient3679"><stop stop-color="rgba(57, 106, 82, 0)" offset="0"></stop><stop stop-color="rgba(57, 106, 82, 0.35)" offset="1"></stop></linearGradient></defs></svg>